<svg xmlns="http://www.w3.org/2000/svg" xmlns:xlink="http://www.w3.org/1999/xlink" version="1.1" width="18" height="18" viewBox="0 0 18 18" xml:space="preserve">
<desc>Created with Fabric.js 4.6.0</desc>
<defs>
</defs>
<g transform="matrix(0.01 0 0 0.01 8.55 8.55)" id="jQnFku-vo0WA1HbPwh-IN"  >
<g style="" vector-effect="non-scaling-stroke"   >
		<g transform="matrix(1 0 0 1 125.83 2.94)" id="ZeJ6WxGYzW55mBIBTd5oc"  >
<path style="stroke: none; stroke-width: 1; stroke-dasharray: none; stroke-linecap: butt; stroke-dashoffset: 0; stroke-linejoin: miter; stroke-miterlimit: 4; fill: rgb(52,52,52); fill-rule: nonzero; opacity: 1;" vector-effect="non-scaling-stroke"  transform=" translate(-612, -612)" d="M 0 612 C 0 274.00173 274.00173 0 612 0 C 949.99827 0 1224 274.00173 1224 612 C 1224 949.99827 949.99827 1224 612 1224 C 274.00173 1224 0 949.99827 0 612 z" stroke-linecap="round" />
</g>
		<g transform="matrix(1 0 0 1 125.83 2.94)" id="6Zwfhh_vwNRsIMQtHQqL7"  >
<path style="stroke: none; stroke-width: 1; stroke-dasharray: none; stroke-linecap: butt; stroke-dashoffset: 0; stroke-linejoin: miter; stroke-miterlimit: 4; fill: rgb(52,52,52); fill-rule: nonzero; opacity: 1;" vector-effect="non-scaling-stroke"  transform=" translate(-612, -612)" d="M 0 612 C 0 274.00173 274.00173 0 612 0 C 949.99827 0 1224 274.00173 1224 612 C 1224 949.99827 949.99827 1224 612 1224 C 274.00173 1224 0 949.99827 0 612 z" stroke-linecap="round" />
</g>
		<g transform="matrix(0.53 0.85 -0.85 0.53 141.36 0)" id="p_TRYVmms8fYX1Ege5EK_"  >
<path style="stroke: none; stroke-width: 1; stroke-dasharray: none; stroke-linecap: butt; stroke-dashoffset: 0; stroke-linejoin: miter; stroke-miterlimit: 4; fill: rgb(165,165,165); fill-rule: evenodd; opacity: 1;" vector-effect="non-scaling-stroke"  transform=" translate(-617.73, -597.27)" d="M 97.4675032 502.245598 C 147.948265 264.426676 359.137241 86 612 86 C 902.501778 86 1138 321.498222 1138 612 C 1138 841.52163 990.993249 1036.70799 786.000002 1108.53883 L 786 1078.82667 C 975.262473 1008.26065 1110.05664 825.885917 1110.05664 612.028321 C 1110.05664 336.974874 887.081768 114 612.028321 114 C 371.742781 114 171.202027 284.167657 124.342932 510.566096 C 115.664481 507.182994 106.689407 504.392899 97.4675023 502.245603 Z M 151.978026 867.257971 C 213.761063 978.364635 314.628181 1064.74959 435.999997 1107.83346 L 436 1078.05466 C 324.452474 1035.89895 232.006579 954.842939 175.211285 851.435569 C 167.868809 857.235152 160.106722 862.526946 151.978026 867.257971 Z" stroke-linecap="round" />
</g>
		<g transform="matrix(1 0 0 1 124.13 4)" id="NLyxpRw3VjpirmgU1-nif"  >
<path style="stroke: none; stroke-width: 1; stroke-dasharray: none; stroke-linecap: butt; stroke-dashoffset: 0; stroke-linejoin: miter; stroke-miterlimit: 4; fill: rgb(155,155,155); fill-rule: nonzero; opacity: 1;" vector-effect="non-scaling-stroke"  transform=" translate(-419, -419)" d="M 0 419 C 0 187.59269 187.59269 0 419 0 C 650.40731 0 838 187.59269 838 419 C 838 650.40731 650.40731 838 419 838 C 187.59269 838 0 650.40731 0 419 z" stroke-linecap="round" />
</g>
		<g transform="matrix(1 0 0 1 124.23 9.87)" id="FYeMxQXUAoBmRNqMSR8Yo"  >
<linearGradient id="SVGID_5" gradientUnits="objectBoundingBox" gradientTransform="matrix(1 0 0 1 0 0)"  x1="1" y1="0.804645116" x2="0" y2="0.21014062800000002">
<stop offset="0%" style="stop-color:rgb(64,159,255);stop-opacity: 1"/>
<stop offset="100%" style="stop-color:rgb(33,87,207);stop-opacity: 1"/>
</linearGradient>
<path style="stroke: none; stroke-width: 1; stroke-dasharray: none; stroke-linecap: butt; stroke-dashoffset: 0; stroke-linejoin: miter; stroke-miterlimit: 4; fill: url(#SVGID_5); fill-rule: nonzero; opacity: 1;" vector-effect="non-scaling-stroke"  transform=" translate(-300.03, -300.03)" d="M 0 300.02919 C 0 134.32764000000003 134.32764 0 300.02919 0 C 465.73074 0 600.05838 134.32764 600.05838 300.02919 C 600.05838 465.73074 465.7307400000001 600.05838 300.02919 600.05838 C 134.32764000000003 600.05838 0 465.7307400000001 0 300.02919 z" stroke-linecap="round" />
</g>
		<g transform="matrix(1 0 0 1 124.23 9.87)" id="gd-BfHrJwW6xTX-GxgT37"  >
<linearGradient id="SVGID_6" gradientUnits="objectBoundingBox" gradientTransform="matrix(1 0 0 1 0 0)"  x1="1" y1="0.804645116" x2="0" y2="0.21014062800000002">
<stop offset="0%" style="stop-color:rgb(64,159,255);stop-opacity: 1"/>
<stop offset="100%" style="stop-color:rgb(33,87,207);stop-opacity: 1"/>
</linearGradient>
<path style="stroke: none; stroke-width: 1; stroke-dasharray: none; stroke-linecap: butt; stroke-dashoffset: 0; stroke-linejoin: miter; stroke-miterlimit: 4; fill: url(#SVGID_6); fill-rule: nonzero; opacity: 1;" vector-effect="non-scaling-stroke"  transform=" translate(-300.03, -300.03)" d="M 0 300.02919 C 0 134.32764000000003 134.32764 0 300.02919 0 C 465.73074 0 600.05838 134.32764 600.05838 300.02919 C 600.05838 465.73074 465.7307400000001 600.05838 300.02919 600.05838 C 134.32764000000003 600.05838 0 465.7307400000001 0 300.02919 z" stroke-linecap="round" />
</g>
		<g transform="matrix(1 0 0 1 124.24 9.83)" id="DSe7mepiA7_noIk6VLd3f"  >
<linearGradient id="SVGID_7" gradientUnits="objectBoundingBox" gradientTransform="matrix(1 0 0 1 0 0)"  x1="1" y1="0.804645116" x2="0" y2="0.21014062800000002">
<stop offset="0%" style="stop-color:rgb(0,28,255);stop-opacity: 0"/>
<stop offset="100%" style="stop-color:rgb(90,234,255);stop-opacity: 0.201341712"/>
</linearGradient>
<path style="stroke: none; stroke-width: 1; stroke-dasharray: none; stroke-linecap: butt; stroke-dashoffset: 0; stroke-linejoin: miter; stroke-miterlimit: 4; fill: url(#SVGID_7); fill-rule: nonzero; opacity: 1;" vector-effect="non-scaling-stroke"  transform=" translate(-260, -260)" d="M 0 260 C 0 116.40597 116.40597 0 260 0 C 403.59403 0 520 116.40597 520 260 C 520 403.59403 403.59403 520 260 520 C 116.40597 520 0 403.59403 0 260 z" stroke-linecap="round" />
</g>
		<g transform="matrix(0.53 0.85 -0.85 0.53 -500.19 399.16)" id="GnSxCgsuM0HtKFuC6KCtW"  >
<path style="stroke: none; stroke-width: 1; stroke-dasharray: none; stroke-linecap: butt; stroke-dashoffset: 0; stroke-linejoin: miter; stroke-miterlimit: 4; fill: rgb(52,52,52); fill-rule: evenodd; opacity: 1;" vector-effect="non-scaling-stroke"  transform=" translate(-596.27, -1330.85)" d="M 421.269577 1026.95919 L 771.269577 1026.95919 L 771.269577 1459.74099 C 771.269577 1556.39527 692.91343 1634.74905 596.269577 1634.74905 L 596.269577 1634.74905 C 499.619746 1634.74905 421.269577 1556.3997 421.269577 1459.74099 L 421.269577 1026.95919 Z" stroke-linecap="round" />
</g>
		<g transform="matrix(1 0 0 1 -284.69 251.55)" id="kMdl3MjsBkoqvU28AELPM"  >
<path style="stroke: none; stroke-width: 1; stroke-dasharray: none; stroke-linecap: butt; stroke-dashoffset: 0; stroke-linejoin: miter; stroke-miterlimit: 4; fill: rgb(155,155,155); fill-rule: nonzero; opacity: 1;" vector-effect="non-scaling-stroke"  transform=" translate(-67, -35.5)" d="M 0 71.00016 L 0 0 L 134 0 L 134 71.00016 z" stroke-linecap="round" />
</g>
		<g transform="matrix(0.54 0.84 -0.84 0.54 -490.78 385.38)" id="lBt914Hw_zh-Ssu-Xq3V0"  >
<path style="stroke: none; stroke-width: 1; stroke-dasharray: none; stroke-linecap: butt; stroke-dashoffset: 0; stroke-linejoin: miter; stroke-miterlimit: 4; fill: rgb(155,155,155); fill-rule: evenodd; opacity: 1;" vector-effect="non-scaling-stroke"  transform=" translate(-74, -314.16)" d="M 6.82121026e-13 286.830549 C 6.82121026e-13 245.956578 6.82460455e-13 179.695562 6.82470721e-13 138.814747 L 6.82499482e-13 154.640733 C 6.82290467e-13 113.77171 33.1219425 80.6408217 74 80.6408217 L 74 80.6408217 C 114.869071 80.6408217 148 113.77349 148 154.640985 L 148 97.2738046 C 148 138.143017 148 204.412798 148 245.277373 L 148 473.693758 C 148 514.560061 114.878057 547.688745 74 547.688745 L 74 547.688745 C 33.1309285 547.688745 6.82121026e-13 514.556918 6.82121026e-13 473.681016 L 6.82121026e-13 286.830549 Z" stroke-linecap="round" />
</g>
		<g transform="matrix(-0.53 -0.85 0.85 -0.53 -474.39 411.24)" id="AWPZtCdXJ-KuLPqww279C"  >
<path style="stroke: none; stroke-width: 1; stroke-dasharray: none; stroke-linecap: butt; stroke-dashoffset: 0; stroke-linejoin: miter; stroke-miterlimit: 4; fill: rgb(135,135,135); fill-rule: evenodd; opacity: 1;" vector-effect="non-scaling-stroke"  transform=" translate(-65.93, -236.75)" d="M 109.439012 4.7333754 C 104.611865 3.74331792 99.6133473 3.22332122 94.4933838 3.22332122 C 53.6153264 3.22332122 20.4933838 36.3542099 20.4933838 77.2232323 L 20.4933838 61.3972465 C 20.4933838 102.278061 20.4933838 168.539078 20.4933838 209.413048 L 20.4933838 396.263515 C 20.4933838 437.139417 53.6243124 470.271245 94.4933838 470.271245 C 100.296077 470.271245 105.942484 469.603696 111.360048 468.341226 C 77.65535 461.428491 52.3054286 431.598651 52.3054286 395.84348 L 52.3054286 208.993013 C 52.3054286 168.119042 52.3054286 101.858026 52.3054286 60.9772111 L 52.3054286 76.8031969 C 52.3054286 41.735497 76.6915012 12.3650079 109.439012 4.7333754 Z" stroke-linecap="round" />
</g>
		<g transform="matrix(0.53 0.85 -0.85 0.53 -257.23 258.09)" id="jI5t3KlNSytv5POYfY76W"  >
<path style="stroke: none; stroke-width: 1; stroke-dasharray: none; stroke-linecap: butt; stroke-dashoffset: 0; stroke-linejoin: miter; stroke-miterlimit: 4; fill: rgb(135,135,135); fill-rule: evenodd; opacity: 1;" vector-effect="non-scaling-stroke"  transform=" translate(-470.37, -106.67)" d="M 452.872371 63.9843924 L 487.872371 63.9843924 L 487.872371 149.364077 L 452.872371 139.916627 L 452.872371 63.9843924 Z" stroke-linecap="round" />
</g>
		<g transform="matrix(1 0 0 1 -250.43 -408.1)" id="3GYxrJB593zszoTaRA7-_"  >
<path style="stroke: none; stroke-width: 1; stroke-dasharray: none; stroke-linecap: butt; stroke-dashoffset: 0; stroke-linejoin: miter; stroke-miterlimit: 4; fill: rgb(52,52,52); fill-rule: nonzero; opacity: 1;" vector-effect="non-scaling-stroke"  transform=" translate(-207.49, -207.49)" d="M 0 207.49485 C 0 92.89861000000002 92.89861 0 207.49485 0 C 322.09109 0 414.9897 92.89861 414.9897 207.49485 C 414.9897 322.09109 322.09109 414.9897 207.49485 414.9897 C 92.89861000000002 414.9897 0 322.09109 0 207.49485 z" stroke-linecap="round" />
</g>
		<g transform="matrix(1 0 0 1 -245.83 -410.5)" id="jrE09NhjqJ6TY0N2Zaqy2"  >
<radialGradient id="SVGID_8" gradientUnits="objectBoundingBox" gradientTransform="matrix(1 0 0 1 0 0)"  cx="0.33223238600000005" cy="0.23353294000000002" r="1" fx="0.33223238600000005" fy="0.23353294000000002">
<stop offset="0%" style="stop-color:rgb(255,255,255);stop-opacity: 1"/>
<stop offset="100%" style="stop-color:rgb(255,255,255);stop-opacity: 1"/>
</radialGradient>
<path style="stroke: none; stroke-width: 1; stroke-dasharray: none; stroke-linecap: butt; stroke-dashoffset: 0; stroke-linejoin: miter; stroke-miterlimit: 4; fill: url(#SVGID_8); fill-rule: evenodd; opacity: 1;" vector-effect="non-scaling-stroke"  transform=" translate(-829.1, -430.1)" d="M 829.103362 570.206723 C 906.480312 570.206723 969.206723 507.480312 969.206723 430.103362 C 969.206723 352.726412 906.480312 290 829.103362 290 C 751.726412 290 689 352.726412 689 430.103362 C 689 507.480312 751.726412 570.206723 829.103362 570.206723 Z" stroke-linecap="round" />
</g>
		<g transform="matrix(1 0 0 1 223.96 -30.31)" style="" id="bYEMAmmorl7cezwH1qVrf"  >
		<text xml:space="preserve" font-family="Helvetica" font-size="700" font-style="normal" font-weight="bold" line-height="1" style="stroke: none; stroke-width: 1; stroke-dasharray: none; stroke-linecap: butt; stroke-dashoffset: 0; stroke-linejoin: miter; stroke-miterlimit: 4; fill: rgb(255,255,255); fill-rule: evenodd; opacity: 1; white-space: pre;" ><tspan x="-291.89" y="219.9" >a</tspan></text>
</g>
		<g transform="matrix(0.62 0.79 -0.79 0.62 205.98 114.8)" id="RvU7MmfGHDiNFU5D-4aa6"  >
<path style="stroke: none; stroke-width: 1; stroke-dasharray: none; stroke-linecap: butt; stroke-dashoffset: 0; stroke-linejoin: miter; stroke-miterlimit: 4; fill: rgb(0,0,0); fill-opacity: 0.09; fill-rule: evenodd; opacity: 1;" vector-effect="non-scaling-stroke"  transform=" translate(-1280.91, -955.4)" d="M 1180.43685 956.804373 C 1180.43685 838.403341 1113.26545 656.21252 1113.26545 656.21252 C 1113.26545 656.21252 1253.06294 651.859749 1338.42335 721.654033 C 1422.77443 790.623049 1452.8317 904.989096 1448.07887 974.117152 C 1443.32603 1043.24521 1400.65926 1141.65206 1338.42335 1190.18651 C 1242.2534 1265.1843 1123.10892 1254.06884 1123.10892 1254.06884 C 1123.10892 1254.06884 1180.43685 1075.2054 1180.43685 956.804373 Z" stroke-linecap="round" />
</g>
</g>
</g>
</svg>